<svg xmlns="http://www.w3.org/2000/svg" xmlns:xlink="http://www.w3.org/1999/xlink" viewBox="0 0 650.16 650.07"><defs><style>.cls-1{fill:url(#Gradiente_sem_nome_188);}.cls-2{fill:url(#Gradiente_sem_nome_17);}.cls-3{fill:url(#Gradiente_sem_nome_16);}.cls-4{fill:url(#Gradiente_sem_nome_217);}</style><linearGradient id="Gradiente_sem_nome_188" x1="325.03" y1="550.08" x2="325.03" y2="99.19" gradientTransform="translate(0.16 0.12) rotate(0.03)" gradientUnits="userSpaceOnUse"><stop offset="0" stop-color="#6d28d9"/><stop offset="1" stop-color="#818cf8"/></linearGradient><linearGradient id="Gradiente_sem_nome_17" x1="289.04" y1="550.17" x2="289.04" y2="199.62" gradientTransform="translate(0.16 0.12) rotate(0.03)" gradientUnits="userSpaceOnUse"><stop offset="0" stop-color="#8a57e1"/><stop offset="1" stop-color="#98a3fa"/></linearGradient><linearGradient id="Gradiente_sem_nome_16" x1="253.05" y1="550.26" x2="253.05" y2="300.04" gradientTransform="translate(0.16 0.12) rotate(0.03)" gradientUnits="userSpaceOnUse"><stop offset="0" stop-color="#a786e9"/><stop offset="1" stop-color="#b0bbfc"/></linearGradient><linearGradient id="Gradiente_sem_nome_217" x1="217.05" y1="550.35" x2="217.05" y2="400.47" gradientTransform="translate(0.16 0.12) rotate(0.03)" gradientUnits="userSpaceOnUse"><stop offset="0" stop-color="#c4b5f1"/><stop offset="1" stop-color="#c7d2fe"/></linearGradient></defs><title>icon</title><g id="Camada_2" data-name="Camada 2"><g id="Camada_5" data-name="Camada 5"><rect width="650.16" height="650.07" rx="101.62"/><path class="cls-1" d="M475.89,263.78,259.58,113c-49.44-34.48-117.23.88-117.26,61.15l-.15,301.43c0,60.27,67.73,95.7,117.21,61.27L475.83,386.2C518.46,356.54,518.5,293.48,475.89,263.78Z"/><path class="cls-2" d="M403.85,313.94,259.65,213.39c-49.49-34.5-117.35.89-117.38,61.22l-.1,201c0,60.33,67.8,95.79,117.32,61.33l144.3-100.41C446.46,406.79,446.49,343.67,403.85,313.94Z"/><path class="cls-3" d="M331.81,364.11l-72.1-50.28c-49.54-34.53-117.46.89-117.49,61.27l-.05,100.48C142.14,536,210,571.46,259.6,537l72.15-50.2C374.46,457.05,374.49,393.87,331.81,364.11Z"/><path class="cls-4" d="M259.77,414.27h0c-49.58-34.57-117.57.89-117.6,61.33h0c0,60.45,67.93,96,117.54,61.45h0C302.46,507.3,302.49,444.06,259.77,414.27Z"/></g></g></svg>